<svg version="1.1" width="130" height="112" viewBox="-1 -1 130 112" xmlns="http://www.w3.org/2000/svg" xmlns:xlink="http://www.w3.org/1999/xlink">
  <!-- Exported by Scratch - http://scratch.mit.edu/ -->
  <g id="ID0.5828484771773219" transform="matrix(1, 0, 0, 1, 0.05, -0.65)">
    <g id="Back_Leg_2">
      <path id="Fill_1_" fill="#995900" d="M 36.125 91.625 C 36.125 91.625 40.598 85.943 45.729 95 C 50.860 104.057 52.375 108.600 52.375 108.600 C 52.375 108.600 59 105.500 57.500 113 C 57.500 113 58.500 120.750 53.875 120.375 C 53.875 120.375 50.373 126.499 46.629 125 C 42.885 123.501 42.375 120 44 115.750 L 36.125 91.625 Z " transform="matrix(-0.9998745322227478, 0.015840444713830948, -0.015840444713830948, -0.9998745322227478, 142.6, 141.1)"/>
      <path id="Outline_2_" fill="#272525" d="M 52.476 108.084 C 53.622 107.046 55.212 106.352 56.479 106.943 C 59.006 108.122 59.750 110.997 58.236 114.255 C 59.363 117.906 56.889 122.607 53.879 121.607 C 53.147 124.105 51.240 125.939 49.205 126.365 C 43.196 127.618 40.795 121.775 42.858 115.455 C 42.508 114.693 34.102 90.581 34.244 89.583 L 36.125 91.625 C 37.110 93.133 45.505 115.057 44.518 117.016 C 41.856 122.292 47.058 126.956 51.601 122.508 C 53.455 120.694 51.601 115.616 50.718 114.557 C 52.984 114.619 53.961 117.615 54.477 119.053 C 56.482 119.213 56.887 117.040 56.917 115.875 C 57.005 112.514 54.382 112.462 52.475 112.100 C 52.139 111.384 52.958 111.399 53.305 111.260 C 54.544 110.766 55.741 111.466 56.918 111.860 C 58.187 108.596 53.977 107.839 52.378 110.245 L 45.088 94.764 C 45.055 94.044 46.540 94.231 46.875 94.126 L 52.476 108.084 Z " transform="matrix(-0.9998745322227478, 0.015840444713830948, -0.015840444713830948, -0.9998745322227478, 142.6, 141.1)"/>
    </g>
    <g id="Front_Leg_2_1_">
      <path id="Fill_2_" fill="#995900" d="M 109.135 109.924 C 107.629 109.972 107.080 108.324 106.205 106.826 C 104.333 103.652 103.559 101.581 101.323 98.833 C 99.389 96.463 98.078 94.243 96.497 92.399 C 95.193 91.891 93.855 91.549 92.559 91.462 C 90.345 91.313 87.768 92.042 87.262 94.562 C 87.540 95.368 87.677 96.255 87.625 97.197 C 87.616 97.351 87.591 97.507 87.576 97.661 C 87.872 98.464 88.285 99.237 88.704 100.006 C 88.785 99.894 88.852 99.784 88.890 99.680 C 90.284 99.973 90.978 101.526 92.290 102.631 C 94.384 104.381 95.360 106.080 96.194 109.026 C 97.538 113.747 96.623 116.893 97.497 121.813 C 97.765 123.336 97.823 124.660 98.880 125.508 C 101.019 127.258 104.273 127.856 105.474 124.908 C 106.857 126.605 109.174 126.031 110.437 124.210 C 111.291 122.986 110.763 121.711 111.414 120.314 C 111.820 119.439 112.553 119.515 113.124 118.816 C 114.709 116.868 114.934 113.820 113.447 111.721 C 112.288 110.073 110.906 109.850 109.135 109.924 Z " transform="matrix(-0.9998745322227478, 0.015840444713830948, -0.015840444713830948, -0.9998745322227478, 142.6, 141.1)"/>
      <path id="Outline_3_" fill="#272525" d="M 108.375 108.802 C 113.368 107.300 117.329 113.522 114.137 118.872 C 113.748 119.521 113.043 120.754 112.379 120.910 C 111.781 125.490 109.775 128.144 105.788 126.365 C 104.448 128.312 102.533 129.078 100.516 128.521 C 93.546 126.601 98.358 116.568 95.975 111.257 C 94.709 108.441 92.959 105.448 91.063 103.230 C 90.670 102.769 88.554 101.126 88.378 100.830 C 88.013 100.223 86.801 98.629 88.653 98.385 C 90.009 98.206 91.457 99.960 92.312 100.588 C 95.652 103.042 98.791 109.655 98.757 114.438 C 98.732 117.862 96.679 123.071 100.271 125.044 C 104.068 127.132 105.142 123.106 104.275 119.891 C 104.879 119.787 105.875 121.809 105.712 123.807 C 107.666 125.961 109.720 122.995 109.893 120.491 C 110.147 116.772 107.912 117.114 106.962 116.296 C 109.373 114.917 111.326 117.214 111.989 118.454 C 113.964 116.333 112.587 111.946 110.511 111.220 C 108.232 110.422 107.989 111.323 106.617 111.861 C 105.055 105.118 99.364 97.135 93.325 92.502 C 93.194 91.804 94.098 91.440 94.399 90.943 C 99.721 92.396 106.465 103.322 108.375 108.802 Z " transform="matrix(-0.9998745322227478, 0.015840444713830948, -0.015840444713830948, -0.9998745322227478, 142.6, 141.1)"/>
    </g>
    <g id="Body">
      <path id="Body_Fill" fill="#995900" d="M 83.658 52.759 C 83.658 52.759 67.125 39.500 44.875 47.250 C 22.625 55 28.375 67.750 27.625 73.500 C 26.875 79.250 30.750 93.270 46.875 101.072 C 63 108.874 87.500 108.250 100.125 86.625 C 100.125 86.625 114.625 94.375 119 82.500 C 119 82.500 133.500 84.750 133.375 73.125 C 133.375 73.125 140.750 73.750 139 62 C 137.250 50.250 127.625 51.125 123.750 49.875 C 119.875 48.625 114.414 46.431 111.125 39.875 C 107.836 33.319 105.625 31.375 97 33.750 C 88.375 36.125 83.658 49.384 83.658 52.759 Z " transform="matrix(-0.9998745322227478, 0.015840444713830948, -0.015840444713830948, -0.9998745322227478, 142.6, 141.1)"/>
      <path id="Body_Outline" fill="#272525" d="M 137.895 56.406 C 137.895 56.406 135.834 51.276 126.480 49.575 C 124.086 48.931 119.825 47.806 119.022 47.402 C 118.596 47.187 118.199 46.917 117.799 46.578 C 109.984 42.800 114 29.750 99.250 32.494 C 84.500 35.238 82.952 51.875 82.952 51.875 C 67.529 39.500 51.458 44.121 37.875 48.563 C 26.604 52.250 26.806 66.047 26.729 67.461 C 26.439 72.799 27.215 80.411 29.286 84.947 C 29.323 85.029 29.404 85.181 29.509 85.366 C 43.879 112.941 70.769 106.612 72.651 106.288 C 75.276 105.836 82.803 104.914 90.064 99.700 C 93.872 96.966 96.359 93.361 96.359 93.361 L 96.350 93.357 C 98.038 91.701 99.290 89.978 100.626 88.244 C 101.016 88.341 103.518 89.507 104.400 89.835 C 107.993 91.168 115.810 92.239 119.407 83.508 C 127.843 85.545 133.413 81.080 134.678 73.957 C 141.572 73.477 142.279 62.899 137.895 56.406 Z M 134.757 71.758 C 134.792 70.959 134.216 66.475 133.653 65.215 C 133.461 64.784 132.348 64.914 132.331 65.765 C 132.170 73.881 132.653 80.948 124.265 81.548 C 120.275 81.834 113.687 79.151 110.269 81.748 C 113.523 81.548 115.968 82.620 118.023 83.327 C 113.665 90.140 105.818 88.140 99.933 84.945 C 99.570 85.241 94.938 92.427 94.876 92.500 C 91.546 96.428 89.376 98.750 82.953 101.072 C 45.420 114.642 31.131 84.747 31.050 84.611 C 28.949 78.613 28.078 74.864 28.599 68.398 L 28.839 65.984 C 28.427 45.593 57.376 45.875 66.626 46.579 C 75.876 47.283 83.500 54.375 83.500 54.375 C 83.500 54.375 83.750 41.875 95.625 35.750 C 107.500 29.625 109.266 38.692 111.500 42.250 C 113.734 45.808 116.512 47.668 116.512 47.668 C 118.127 49.100 119.953 50.157 122.229 50.457 C 124.905 50.925 135.385 53.062 137.072 58.088 C 138.552 62.193 139.277 70.260 134.757 71.758 Z " transform="matrix(-0.9998745322227478, 0.015840444713830948, -0.015840444713830948, -0.9998745322227478, 142.6, 141.1)"/>
    </g>
    <g id="Tail">
      <path id="Fill_5_" fill="#995900" d="M 38.211 60.657 C 38.285 59.510 38.066 58.361 37.437 57.379 C 36.674 56.187 35.599 55.255 34.341 54.788 C 34.281 54.834 34.208 54.868 34.110 54.877 C 33.374 54.941 32.749 54.973 32.128 54.771 C 26.469 55.147 21.335 51.791 18.750 46.561 C 17.037 43.101 17.605 40.871 17.674 37.292 C 13.593 43.297 12.535 49.584 16.797 56.669 C 20.949 63.550 31.984 66.679 36.588 63.702 C 37.245 62.753 38.134 61.838 38.211 60.657 Z " transform="matrix(-0.9998745322227478, 0.015840444713830948, -0.015840444713830948, -0.9998745322227478, 142.6, 141.1)"/>
      <path id="Outline" fill="#272525" d="M 29.910 64.720 C 30.364 64.444 31.014 64.022 31.100 63.440 C 31.144 63.145 30.976 62.917 30.735 62.736 C 28.613 62.738 26.446 62.319 24.424 61.422 C 18.714 58.422 15.639 52.470 15.713 46.701 C 15.684 44.041 16.106 41.393 17.216 39.166 C 17.113 42.275 17.660 46.118 19.767 49.016 C 22.245 52.802 27.478 56.506 32.048 56.286 C 32.878 56.164 34.063 56.531 34.243 55.676 C 34.233 55.625 34.226 55.575 34.217 55.524 C 34.079 55.191 33.796 54.913 33.513 54.707 C 32.979 54.316 32.288 53.928 31.591 53.805 C 28.745 54.649 24.950 52.822 22.784 50.235 C 18.844 45.897 17.982 39.393 19.197 34.647 C 19.461 34.091 19.582 33.489 19.704 32.888 C 10.933 41.649 12.592 53.577 19.221 60.379 C 21.802 62.981 24.918 64.630 28.215 65.383 C 28.818 65.251 29.398 65.032 29.910 64.720 Z " transform="matrix(-0.9998745322227478, 0.015840444713830948, -0.015840444713830948, -0.9998745322227478, 142.6, 141.1)"/>
    </g>
    <g id="Back_Leg_1_1_">
      <path id="Fill" fill="#995900" d="M 23.961 126.536 C 23.961 126.536 19.753 128.086 18 125 C 16.247 121.914 18.125 115.750 22.500 112.500 C 26.875 109.250 31.125 102.699 31.625 99.537 C 32.125 96.375 33.500 87.625 33.500 87.625 C 33.500 87.625 49.354 85.549 43.989 99.537 C 38.624 113.525 34.750 115.375 34.750 115.375 C 34.750 115.375 38.997 119.773 36.750 123.625 C 34.503 127.477 32.125 126.926 32.125 126.926 C 32.125 126.926 26.297 133.322 23.961 126.536 Z " transform="matrix(-0.9998745322227478, 0.015840444713830948, -0.015840444713830948, -0.9998745322227478, 142.6, 141.1)"/>
      <path id="Outline_1_" fill="#272525" d="M 25.526 126.244 C 25.888 127.904 27.951 129.123 29.627 127.683 C 33.203 124.611 29.930 120.359 30.115 119.771 C 31.665 120.008 33.076 123.500 32.801 125.646 C 37.120 126.812 38.135 116.549 32.117 115.275 C 35.327 114.417 41.625 105.636 43.513 96.874 C 43.724 95.895 44.989 99.013 45.579 99.657 C 46.874 101.072 39.395 113.917 36.558 115.574 C 37.793 118.015 39.016 118.986 38.316 122.347 C 37.802 124.814 34.829 128.109 32.640 128.101 C 31.989 130.200 25.236 133.497 23.120 128.101 C 20.109 129.101 17.999 127.279 17.224 125.763 C 15.741 122.867 15.847 117.505 17.663 114.855 C 20.548 110.644 25.437 109.711 27.769 104.486 C 29.218 101.238 31.059 97.789 31.387 94.125 C 31.482 93.065 31.727 89.164 31.909 88.170 C 32.050 87.406 33.784 85.531 34.242 86.375 C 34.408 86.682 34.898 89.710 34.242 92.770 C 32.926 98.909 31.122 104.075 28.208 108.983 C 25.168 114.100 17.575 114.706 18.248 122.467 C 18.586 126.354 22.053 127.115 24.253 124.807 C 25.450 123.547 24.989 122.707 25.278 120.911 C 26.540 123.008 26.122 124.633 25.526 126.244 Z " transform="matrix(-0.9998745322227478, 0.015840444713830948, -0.015840444713830948, -0.9998745322227478, 142.6, 141.1)"/>
    </g>
    <g id="Front_Leg_1">
      <path id="ID0.27131967432796955" fill="#995900" d="M 76.494 97.750 C 76.494 97.750 85.389 83.500 86.194 96.875 L 80 121.625 C 80 121.625 88.323 122.840 82.500 131.037 C 82.500 131.037 79.750 140.375 75 137.125 C 75 137.125 73.125 140 70.750 139.875 C 68.375 139.750 60.206 133.117 66.750 126.536 C 73.125 120.125 72.750 115.375 73 114.625 C 73.250 113.875 76.494 97.750 76.494 97.750 Z " transform="matrix(-0.9998745322227478, 0.015840444713830948, -0.015840444713830948, -0.9998745322227478, 142.6, 141.1)"/>
      <path id="ID0.2072396371513605" fill="#272525" d="M 80.938 120.490 C 85.321 120.378 86.934 125.867 85.042 130.081 C 84.293 131.746 83.750 131.658 82.603 132.719 C 82.480 137.108 78.525 141.536 75.230 138.293 C 71.469 145.130 62.109 139.534 63.756 131.102 C 64.634 126.604 67.760 125.322 69.098 123.008 C 71.852 118.251 74.244 103.805 75.082 97.714 C 75.340 95.830 77.601 97.011 77.425 98.913 C 76.635 107.559 73.799 120.078 68.296 125.945 C 66.595 127.757 65.512 130.991 66.099 133.675 C 66.700 136.428 68.927 138.178 71.224 138.290 C 72.718 138.364 74.955 135.093 74.629 131.099 C 76.745 133.097 74.562 135.984 76.740 136.314 C 80.059 136.818 81.911 130.460 78.498 128.222 C 80.162 126.904 81.651 129.492 82.015 130.078 C 82.634 129.669 83.208 128.739 83.428 127.920 C 84.695 123.232 81.383 122.706 78.861 122.505 C 80.898 115.303 85.089 96.851 86.117 95.734 C 86.715 95.086 87.851 95.769 87.631 96.574 C 85.420 104.521 83.492 112.695 80.938 120.490 Z " transform="matrix(-0.9998745322227478, 0.015840444713830948, -0.015840444713830948, -0.9998745322227478, 142.6, 141.1)"/>
    </g>
    <g id="Nose_1_">
      <path id="Outline_11_" fill="#272525" d="M 136.883 50.052 C 133.967 44.963 117.208 50.328 120.247 57.747 C 122.348 62.876 128.732 63.961 132.346 63.074 C 135.959 62.186 139.820 55.179 136.883 50.052 Z M 132.010 60.971 C 129.405 61.761 121.667 59.439 123.336 54.738 C 124.447 51.601 133.691 48.740 135.534 51.366 C 137.076 53.565 134.615 60.183 132.010 60.971 Z " transform="matrix(-0.9998745322227478, 0.015840444713830948, -0.015840444713830948, -0.9998745322227478, 142.6, 141.1)"/>
      <path id="Fill_9_" fill="#000000" d="M 123.336 54.738 C 121.667 59.439 129.404 61.761 132.010 60.971 C 134.615 60.183 137.076 53.565 135.534 51.366 C 133.691 48.740 124.447 51.601 123.336 54.738 Z " transform="matrix(-0.9998745322227478, 0.015840444713830948, -0.015840444713830948, -0.9998745322227478, 142.6, 141.1)"/>
    </g>
    <g id="R_Eye_1_">
      <path id="ID0.14963565161451697" fill="#272525" d="M 112.837 49.562 C 112.631 42.975 122.843 41.870 121.358 46.430 C 120.287 49.717 115.260 52.183 112.837 49.562 Z " transform="matrix(-0.9998745322227478, 0.015840444713830948, -0.015840444713830948, -0.9998745322227478, 142.6, 141.1)"/>
      <path id="ID0.8226851881481707" fill="#FFFFFF" d="M 113.977 48.981 C 113.819 47.109 117.727 44.936 119.092 45.404 C 121.191 46.125 117.137 50.242 113.977 48.981 Z " transform="matrix(-0.9998745322227478, 0.015840444713830948, -0.015840444713830948, -0.9998745322227478, 142.6, 141.1)"/>
      <path id="ID0.82649802044034" fill="#272525" d="M 118.859 44.787 C 119.295 44.787 119.691 44.974 119.977 45.276 C 120.264 45.579 120.441 45.996 120.441 46.457 C 120.441 46.918 120.264 47.335 119.977 47.638 C 119.691 47.940 119.295 48.127 118.859 48.127 C 118.423 48.127 118.027 47.940 117.741 47.638 C 117.454 47.335 117.277 46.918 117.277 46.457 C 117.277 45.996 117.454 45.579 117.741 45.276 C 118.027 44.974 118.423 44.787 118.859 44.787 Z " transform="matrix(-0.9998745322227478, 0.015840444713830948, -0.015840444713830948, -0.9998745322227478, 142.6, 141.1)"/>
    </g>
    <g id="L_Eye_1_">
      <path id="ID0.8076787535101175" fill="#272525" d="M 108.959 51.689 C 107.807 59.766 95.839 58.047 98.506 52.946 C 100.432 49.266 106.727 47.773 108.959 51.689 Z " transform="matrix(-0.9998745322227478, 0.015840444713830948, -0.015840444713830948, -0.9998745322227478, 142.6, 141.1)"/>
      <path id="ID0.019533360842615366" fill="#FFFFFF" d="M 107.525 52.054 C 107.314 54.379 102.365 55.851 100.894 54.872 C 98.634 53.366 104.162 49.573 107.525 52.054 Z " transform="matrix(-0.9998745322227478, 0.015840444713830948, -0.015840444713830948, -0.9998745322227478, 142.6, 141.1)"/>
      <path id="ID0.7605876931920648" fill="#272525" d="M 106.039 50.880 C 106.600 50.880 107.109 51.121 107.477 51.509 C 107.845 51.898 108.073 52.435 108.073 53.027 C 108.073 53.619 107.845 54.156 107.477 54.545 C 107.109 54.933 106.600 55.174 106.039 55.174 C 105.478 55.174 104.969 54.933 104.601 54.545 C 104.233 54.156 104.005 53.619 104.005 53.027 C 104.005 52.435 104.233 51.898 104.601 51.509 C 104.969 51.121 105.478 50.880 106.039 50.880 Z " transform="matrix(-0.9998745322227478, 0.015840444713830948, -0.015840444713830948, -0.9998745322227478, 142.6, 141.1)"/>
    </g>
    <g id="Ear_1_">
      <path id="Fill_10_" fill="#995900" d="M 93.154 54.822 C 94.088 53.336 95.253 52.280 94.885 50.442 C 94.487 48.566 93.053 48.135 91.555 47.314 C 88.826 45.828 86.526 44.654 83.827 46.218 C 78.298 49.465 77.432 55.995 77.432 63.267 C 77.432 67.333 78.330 70.110 80.762 72.965 C 82.794 75.350 86.457 75.819 88.222 73.121 C 92.156 67.179 89.356 60.766 93.154 54.822 Z " transform="matrix(-0.9998745322227478, 0.015840444713830948, -0.015840444713830948, -0.9998745322227478, 142.6, 141.1)"/>
      <path id="Outline_12_" fill="#272525" d="M 86.545 73.093 C 85.272 74.114 83.082 73.614 81.895 72.618 C 76.296 67.922 78.096 50.797 83.836 47.548 C 87.429 45.515 92.314 48.910 93.289 48.566 C 90.593 45.333 87.393 45.300 86.167 45.349 C 85.185 45.340 84.523 45.477 83.324 46.013 C 77.248 48.932 75.547 62.070 76.962 68.393 C 77.736 71.848 81.423 76.111 84.606 76.131 C 87.119 76.145 88.828 73.609 89.784 71.241 C 91.736 66.398 91.426 62.712 92.493 57.803 C 92.869 56.072 95.312 53.528 94.689 51.615 C 89.115 50.865 91.972 68.745 86.545 73.093 Z " transform="matrix(-0.9998745322227478, 0.015840444713830948, -0.015840444713830948, -0.9998745322227478, 142.6, 141.1)"/>
    </g>
  </g>
  <path id="ID0.8219200037419796" fill="none" stroke="#995900" stroke-width="2" stroke-linecap="round" d="M 215.150 222.150 C 215.150 222.150 212.508 222.485 211.400 223.150 C 210.800 223.510 210.342 224.302 210.400 225 C 210.491 226.099 211.525 227.972 211.800 228 C 212.075 228.028 211.602 226.052 211.900 225.150 C 212.321 223.876 213.724 220.972 213.900 221.650 C 214.161 222.654 212.806 229.075 212.900 229 C 212.994 228.925 214.973 220.606 215.150 220.650 C 215.327 220.694 215.036 228.218 214.900 229.500 C 214.820 230.251 214.399 226.712 214.650 225.350 C 214.913 223.920 216.189 220.707 216.400 221.350 C 216.668 222.164 215.469 226.366 215.800 228.850 C 215.883 229.471 217.211 229.535 217.400 228.850 C 218.157 226.111 217.617 220.571 218.150 220.350 C 218.683 220.129 219.953 226.765 220.650 227.500 C 221.145 228.022 221.139 224.647 220.900 223.250 C 220.786 222.584 219.796 221.118 219.650 221.650 C 219.246 223.118 220.123 225.413 219.800 227.250 C 219.682 227.923 219.008 228.439 218.400 228.750 C 218.148 228.879 217.650 228.350 217.650 228.350 " transform="matrix(1, 0, 0, 1, -177, -136)"/>
  <path id="ID0.8836612608283758" fill="none" stroke="#995900" stroke-width="2" stroke-linecap="round" d="M 201.700 228 L 202 228.300 C 201.363 228.058 202.078 229.296 202.650 229.750 C 203.703 230.585 205.362 231.858 206 232 C 206.381 232.085 204.781 230.387 204.900 230.250 C 205.019 230.113 206.301 231.499 206.650 231.250 C 207.001 230.999 206.871 229.611 206.300 229.250 C 205.154 228.526 203.642 228.313 202.300 228.500 C 201.844 228.564 202.014 229.859 202 229.850 Z " transform="matrix(1, 0, 0, 1, -177, -136)"/>
  <path id="ID0.8333685072138906" fill="none" stroke="#FFFFFF" stroke-width="2" stroke-linecap="round" d="M 201.300 233.850 C 198.673 233.031 199.101 232.636 199.400 232.750 C 200.082 233.011 201.104 233.885 201 234.250 C 200.905 234.584 199 233.940 199 234.150 C 199 234.360 200.982 235.350 201 235.350 C 201.020 235.350 199.828 234.599 199.300 234.150 C 199.039 233.928 198.626 233.692 198.650 233.350 Z " transform="matrix(1, 0, 0, 1, -177, -136)"/>
  <path id="ID0.1331754084676504" fill="none" stroke="#272525" stroke-width="2" stroke-linecap="round" d="M 198.250 229.850 C 198.250 229.850 199.850 230.266 200.600 230.600 C 201.242 230.886 201.821 231.303 202.400 231.700 C 202.988 232.103 203.600 232.492 204.100 233 C 204.724 233.633 205.750 235.100 205.750 235.100 " transform="matrix(1, 0, 0, 1, -177, -136)"/>
  <path id="ID0.6522192871198058" fill="none" stroke="#000000" stroke-width="2" stroke-linecap="round" d="M 205.100 225.100 C 205.100 225.100 206.620 226.058 207.400 226.500 C 208.619 227.191 209.826 227.919 211.100 228.500 C 211.733 228.789 212.419 228.959 213.100 229.100 C 213.393 229.161 214 229.100 214 229.100 " transform="matrix(1, 0, 0, 1, -177, -136)"/>
  <path id="ID0.10523970751091838" fill="none" stroke="#000000" stroke-width="2" stroke-linecap="round" d="M 211 222.100 C 211 222.100 209.879 223.463 209.400 224.200 C 209.010 224.799 208.673 225.439 208.400 226.100 C 207.872 227.375 207.562 228.740 207 230 C 206.725 230.616 205.900 231.700 205.900 231.700 " transform="matrix(1, 0, 0, 1, -177, -136)"/>
  <path id="ID0.35038322350010276" fill="none" stroke="#000000" stroke-width="2" stroke-linecap="round" d="M 194.750 229.700 C 194.750 229.700 196.078 230.315 196.750 230.600 C 197.493 230.915 198.256 231.186 199 231.500 C 199.639 231.769 200.294 232.013 200.900 232.350 C 201.497 232.682 202.020 233.139 202.600 233.500 C 202.745 233.590 202.750 233.500 202.750 233.500 " transform="matrix(1, 0, 0, 1, -177, -136)"/>
  <path id="ID0.5856145336292684" fill="none" stroke="#000000" stroke-width="2" stroke-linecap="round" d="M 200.500 226.500 C 200.500 226.500 199.607 228.208 199.250 229.100 C 198.740 230.376 198.343 231.699 197.900 233 C 197.561 233.997 196.900 236 196.900 236 " transform="matrix(1, 0, 0, 1, -177, -136)"/>
</svg>